<svg width="123" height="72" viewBox="0 0 123 72" fill="none" xmlns="http://www.w3.org/2000/svg">
    <g clip-path="url(#clip0_1_165)">
        <path fill-rule="evenodd" clip-rule="evenodd" d="M98.5105 0V54.1332H85.7898V2.7072L98.5105 0ZM62.2933 59.2632C65.805 59.2632 68.6536 62.1144 68.6536 65.6316C68.6536 69.1488 65.805 72 62.2933 72C58.7815 72 55.9329 69.1488 55.9329 65.6316C55.9329 62.1144 58.7797 59.2632 62.2933 59.2632ZM62.2933 15.3738C73.1226 15.3738 81.9198 24.165 81.9198 35.0262C81.9198 45.8892 73.1226 54.6822 62.2933 54.6822C51.4461 54.6822 42.6667 45.8892 42.6667 35.0262C42.6667 24.165 51.4639 15.3738 62.2933 15.3738ZM62.2933 41.3946C65.8086 41.3946 68.6536 38.547 68.6536 35.0262C68.6536 31.5072 65.8086 28.6578 62.2933 28.6578C58.778 28.6578 55.9329 31.5072 55.9329 35.0262C55.9329 38.547 58.778 41.3946 62.2933 41.3946ZM22.2773 41.3946C24.4699 41.3946 26.2525 39.609 26.2525 37.4166C26.2468 36.3568 25.8252 35.3424 25.08 34.596C24.3348 33.8497 23.3269 33.4321 22.2773 33.435H12.7385V41.3946H22.2773ZM12.7385 12.7386V20.6982H19.8048C21.9956 20.6982 23.78 18.9108 23.78 16.7166C23.7734 15.6574 23.3513 14.644 22.6062 13.8984C21.8612 13.1528 20.8538 12.7357 19.8048 12.7386H12.7385ZM33.9908 25.5096C37.064 28.5516 38.9732 32.7636 38.9553 37.4148C38.9553 46.6488 31.4827 54.1332 22.2594 54.1332H0V0H19.787C29.0084 0 36.4811 7.4826 36.4811 16.7166C36.4811 19.9386 35.5809 22.9626 33.9908 25.5096ZM122.537 28.836H116.194V38.8314C116.194 41.8554 117.166 44.0838 119.709 44.0838C121.353 44.0838 122.554 43.713 122.554 43.713V53.0892C122.554 53.0892 119.921 54.6804 116.353 54.6804H116.194C116.034 54.6804 115.895 54.6624 115.734 54.6624H115.611C115.54 54.6624 115.451 54.6444 115.381 54.6444C108.279 54.2736 103.455 49.7988 103.455 42.0318V9.0738L116.176 6.3684V16.0974H122.537V28.836Z" fill="#34D186"/>
    </g>
    <defs>
        <clipPath id="clip0_1_165">
            <rect width="123" height="72" fill="white"/>
        </clipPath>
    </defs>
</svg>
