<svg width="24" height="24" viewBox="0 0 24 24" fill="none" xmlns="http://www.w3.org/2000/svg">
    <path d="M12 21C16.9706 21 21 16.9706 21 12C21 7.02944 16.9706 3 12 3C7.02944 3 3 7.02944 3 12C3 16.9706 7.02944 21 12 21Z" stroke="#2F313F" stroke-width="2" stroke-linecap="round" stroke-linejoin="round"/>
    <path d="M17 4.5C15.5 5 13.5 6 13.5 8C13.5 10 15.5 10 16 11C16.5 12 16 15 15 17C14.25 18.5 21 15.5 21 12.5L17 4.5ZM7.5 5C8.333 5.5 10 5.8 10 7C10 8.5 8.5 7 7 9.5C6.167 10.888 3.833 9.833 3.5 9.5L7.5 5ZM11.5 16C12.167 16.5 12 17.571 10 17C8 16.428 6.861 14.525 6.5 13.5C6.162 12.652 5.569 11.216 7 10.5C8 10 9 10.5 10 11.5C11 12.5 9.74 14.68 11.5 16Z" stroke="#2F313F" stroke-width="2" stroke-linecap="round" stroke-linejoin="round"/>
</svg>
